<svg width="32" height="32" viewBox="0 0 32 32" fill="none" xmlns="http://www.w3.org/2000/svg">
<path fill-rule="evenodd" clip-rule="evenodd" d="M9.2002 2.66675C6.99106 2.66675 5.2002 4.45761 5.2002 6.66674V25.3334C5.2002 27.5426 6.99106 29.3334 9.2002 29.3334H22.8002C25.0093 29.3334 26.8002 27.5426 26.8002 25.3334V9.33342L20.1335 2.66675H9.2002Z" fill="#FA4E4E"/>
<path d="M20.3308 20.6259C19.431 20.559 18.5647 20.2249 17.8648 19.6234C16.4985 19.924 15.1987 20.3584 13.899 20.8932C12.866 22.731 11.8995 23.6667 11.0663 23.6667C10.8997 23.6667 10.6998 23.6334 10.5665 23.533C10.1998 23.366 10 22.9984 10 22.6309C10 22.33 10.0667 21.4947 13.2325 20.1245C13.9658 18.7879 14.5322 17.4179 14.9988 15.981C14.5988 15.179 13.7325 13.2074 14.3322 12.205C14.5322 11.8374 14.9322 11.6369 15.3655 11.6704C15.6987 11.6704 16.0318 11.8374 16.2318 12.1047C16.6652 12.7062 16.6318 13.976 16.0652 15.8474C16.5985 16.8484 17.297 17.7522 18.1313 18.5207C18.8313 18.3869 19.531 18.2867 20.2308 18.2867C21.7972 18.32 22.0305 19.0552 21.9972 19.4897C21.9972 20.6259 20.8973 20.6259 20.3308 20.6259V20.6259ZM10.9998 22.6975L11.0998 22.6642C11.5663 22.4972 11.9328 22.163 12.1995 21.7285C11.6995 21.929 11.2997 22.2632 10.9998 22.6977V22.6975ZM15.432 12.6729H15.332C15.2987 12.6729 15.232 12.6729 15.1987 12.7062C15.0653 13.2742 15.1653 13.8757 15.3987 14.4104C15.5987 13.8424 15.5987 13.2409 15.432 12.6729V12.6729ZM15.6653 17.5182L15.632 17.5849L15.5987 17.5515C15.2987 18.3202 14.9653 19.0887 14.5988 19.8239L14.6655 19.7905V19.8572C15.4066 19.5885 16.1634 19.3653 16.9317 19.1889L16.8983 19.1555H16.9983C16.4983 18.6542 16.0318 18.0862 15.6653 17.5182V17.5182ZM20.1975 19.2892C19.8975 19.2892 19.631 19.2892 19.331 19.3559C19.6643 19.523 19.9977 19.5899 20.3308 19.6234C20.5642 19.6567 20.7975 19.6234 20.9973 19.5565C20.9973 19.4562 20.864 19.2892 20.1975 19.2892Z" fill="white"/>
<path d="M26.175 8.70825L20.7588 8.70825L26.8005 14.7499L26.8005 9.33325L26.175 8.70825Z" fill="url(#paint0_linear_1040_19352)"/>
<path d="M20.1331 9.33325L26.7998 9.33325L20.1331 2.66659L20.1331 9.33325Z" fill="#FDB8B8"/>
<defs>
<linearGradient id="paint0_linear_1040_19352" x1="22.113" y1="7.35409" x2="28.1546" y2="13.3958" gradientUnits="userSpaceOnUse">
<stop stop-opacity="0.2"/>
<stop offset="1" stop-opacity="0"/>
</linearGradient>
</defs>
</svg>
