<svg width="32" height="32" viewBox="0 0 32 32" fill="none" xmlns="http://www.w3.org/2000/svg">
<g clip-path="url(#clip0_1040_19356)">
<path fill-rule="evenodd" clip-rule="evenodd" d="M9.20019 2.66675C6.99106 2.66675 5.2002 4.45761 5.2002 6.66674V25.3334C5.2002 27.5426 6.99106 29.3334 9.2002 29.3334H22.8002C25.0093 29.3334 26.8002 27.5426 26.8002 25.3334L26.8002 9.33342L20.1335 2.66675H9.20019Z" fill="#32BD7A"/>
<g filter="url(#filter0_dd_1040_19356)">
<path d="M13.0063 22.6667L15.9922 18.3811L18.9935 22.6667H20.4163L16.6825 17.4707L20.1475 12.6667H18.7247L15.9922 16.5602L13.273 12.6667H11.8507L15.2878 17.4707L11.583 22.6667H13.0063Z" fill="white"/>
</g>
<path d="M26.175 8.70825L20.7588 8.70825L26.8005 14.7499L26.8005 9.33325L26.175 8.70825Z" fill="url(#paint0_linear_1040_19356)"/>
<path d="M20.1331 9.33325L26.7998 9.33325L20.1331 2.66659L20.1331 9.33325Z" fill="#EBFFEC"/>
</g>
<defs>
<filter id="filter0_dd_1040_19356" x="10.583" y="11.6667" width="17.833" height="21" filterUnits="userSpaceOnUse" color-interpolation-filters="sRGB">
<feFlood flood-opacity="0" result="BackgroundImageFix"/>
<feColorMatrix in="SourceAlpha" type="matrix" values="0 0 0 0 0 0 0 0 0 0 0 0 0 0 0 0 0 0 127 0" result="hardAlpha"/>
<feOffset dx="4" dy="6"/>
<feGaussianBlur stdDeviation="2"/>
<feColorMatrix type="matrix" values="0 0 0 0 0 0 0 0 0 0 0 0 0 0 0 0 0 0 0.1 0"/>
<feBlend mode="normal" in2="BackgroundImageFix" result="effect1_dropShadow_1040_19356"/>
<feColorMatrix in="SourceAlpha" type="matrix" values="0 0 0 0 0 0 0 0 0 0 0 0 0 0 0 0 0 0 127 0" result="hardAlpha"/>
<feOffset/>
<feGaussianBlur stdDeviation="0.5"/>
<feColorMatrix type="matrix" values="0 0 0 0 0 0 0 0 0 0 0 0 0 0 0 0 0 0 0.4 0"/>
<feBlend mode="normal" in2="effect1_dropShadow_1040_19356" result="effect2_dropShadow_1040_19356"/>
<feBlend mode="normal" in="SourceGraphic" in2="effect2_dropShadow_1040_19356" result="shape"/>
</filter>
<linearGradient id="paint0_linear_1040_19356" x1="22.113" y1="7.35409" x2="28.1546" y2="13.3958" gradientUnits="userSpaceOnUse">
<stop stop-opacity="0.2"/>
<stop offset="1" stop-opacity="0"/>
</linearGradient>
<clipPath id="clip0_1040_19356">
<rect width="32" height="32" fill="white"/>
</clipPath>
</defs>
</svg>
